<?xml version="1.0" encoding="UTF-8"?><svg id="Layer_1" xmlns="http://www.w3.org/2000/svg" xmlns:xlink="http://www.w3.org/1999/xlink" viewBox="0 0 1920 431.72"><defs><style>.cls-1{fill:#f5f5f5;opacity:.05;}.cls-2{fill:#525252;opacity:.87;}.cls-3{fill:#f8f8f8;opacity:.03;}.cls-4{fill:#c4c4c4;opacity:.3;}.cls-5{fill:#595959;opacity:.84;}.cls-6{fill:#737373;opacity:.7;}.cls-7{fill:#909090;opacity:.56;}.cls-8{fill:#767676;opacity:.69;}.cls-9{fill:#7d7d7d;opacity:.66;}.cls-10{fill:#cbcbcb;opacity:.26;}.cls-11{fill:#383838;}.cls-12{fill:#f2f2f2;opacity:.07;}.cls-13{fill:#e8e8e8;opacity:.11;}.cls-14{fill:#6c6c6c;opacity:.74;}.cls-15{fill:#bebebe;opacity:.33;}.cls-16{fill:#868686;opacity:.61;}.cls-17{fill:#454545;opacity:.93;}.cls-18{fill:none;}.cls-19{fill:#fcfcfc;opacity:.02;}.cls-20{fill:#8d8d8d;opacity:.57;}.cls-21{fill:#696969;opacity:.75;}.cls-22{fill:#484848;opacity:.92;}.cls-23{fill:#555;opacity:.85;}.cls-24{fill:#fff;opacity:0;}.cls-25{fill:#b4b4b4;opacity:.38;}.cls-26{fill:#adadad;opacity:.41;}.cls-27{fill:#424242;opacity:.95;}.cls-28{fill:#9a9a9a;opacity:.51;}.cls-29{fill:#ebebeb;opacity:.1;}.cls-30{fill:#838383;opacity:.62;}.cls-31{fill:#c1c1c1;opacity:.31;}.cls-32{fill:#626262;opacity:.79;}.cls-33{fill:#8a8a8a;opacity:.59;}.cls-34{fill:#5c5c5c;opacity:.82;}.cls-35{fill:#bababa;opacity:.34;}.cls-36{fill:#dbdbdb;opacity:.18;}.cls-37{fill:#a0a0a0;opacity:.48;}.cls-38{fill:#e5e5e5;opacity:.13;}.cls-39{fill:#b7b7b7;opacity:.36;}.cls-40{fill:#d5d5d5;opacity:.21;}.cls-41{fill:#cecece;opacity:.25;}.cls-42{fill:#979797;opacity:.52;}.cls-43{fill:#939393;opacity:.54;}.cls-44{fill:#3f3f3f;opacity:.97;}.cls-45{fill:#6f6f6f;opacity:.72;}.cls-46{fill:#d8d8d8;opacity:.2;}.cls-47{fill:#9d9d9d;opacity:.49;}.cls-48{fill:#5f5f5f;opacity:.8;}.cls-49{fill:gray;opacity:.64;}.cls-50{fill:#797979;opacity:.67;}.cls-51{fill:#a4a4a4;opacity:.46;}.cls-52{fill:#a7a7a7;opacity:.44;}.cls-53{fill:#c8c8c8;opacity:.28;}.cls-54{fill:#aaa;opacity:.43;}.cls-55{fill:#d1d1d1;opacity:.23;}.cls-56{fill:#efefef;opacity:.08;}.cls-57{fill:#666;opacity:.77;}.cls-58{fill:#4c4c4c;opacity:.9;}.cls-59{fill:#4f4f4f;opacity:.89;}.cls-60{fill:#dedede;opacity:.16;}.cls-61{clip-path:url(#clippath);}.cls-62{fill:#b1b1b1;opacity:.39;}.cls-63{fill:#e2e2e2;opacity:.15;}.cls-64{fill:#3b3b3b;opacity:.98;}</style><clipPath id="clippath"><rect id="SVGID" class="cls-18" y="165.56" width="1920" height="266.16"/></clipPath></defs><g class="cls-61"><path class="cls-24" d="M1762.07,143.61c0,102.17-379.74,30.79-848.18,30.79S68.98,248.32,68.98,146.15,445.45,0,913.89,0s848.18,41.45,848.18,143.61Z"/><path class="cls-19" d="M1759.1,143.31c0,100.85-378.41,30.94-845.21,30.94S71.89,246.67,71.89,145.81,447.1,1.4,913.89,1.4s845.21,41.06,845.21,141.92Z"/><path class="cls-3" d="M1756.13,143.01c0,99.54-377.08,31.1-842.24,31.1S74.81,245.01,74.81,145.47,448.74,2.79,913.89,2.79s842.24,40.68,842.24,140.22Z"/><path class="cls-1" d="M1753.16,142.72c0,98.23-375.75,31.25-839.27,31.25S77.73,243.36,77.73,145.13,450.38,4.19,913.89,4.19s839.27,40.29,839.27,138.53Z"/><path class="cls-12" d="M1750.19,142.42c0,96.92-374.42,31.4-836.3,31.4S80.64,241.71,80.64,144.79,452.02,5.58,913.89,5.58s836.3,39.91,836.3,136.83Z"/><path class="cls-56" d="M1747.22,142.12c0,95.61-373.09,31.56-833.33,31.56S83.56,240.06,83.56,144.45,453.66,6.98,913.89,6.98s833.33,39.53,833.33,135.14Z"/><path class="cls-29" d="M1744.25,141.82c0,94.3-371.76,31.71-830.36,31.71S86.48,238.41,86.48,144.11,455.3,8.37,913.89,8.37s830.36,39.14,830.36,133.44Z"/><path class="cls-13" d="M1741.28,141.52c0,92.99-370.43,31.87-827.39,31.87S89.39,236.75,89.39,143.76,456.94,9.77,913.89,9.77s827.39,38.76,827.39,131.75Z"/><path class="cls-38" d="M1738.31,141.22c0,91.68-369.11,32.02-824.42,32.02S92.31,235.1,92.31,143.42,458.58,11.17,913.89,11.17s824.42,38.37,824.42,130.05Z"/><path class="cls-63" d="M1735.34,140.92c0,90.37-367.78,32.18-821.45,32.18S95.23,233.45,95.23,143.08,460.22,12.56,913.89,12.56s821.45,37.99,821.45,128.36Z"/><path class="cls-60" d="M1732.37,140.62c0,89.06-366.45,32.33-818.48,32.33S98.14,231.8,98.14,142.74,461.86,13.96,913.89,13.96s818.48,37.6,818.48,126.66Z"/><path class="cls-36" d="M1729.4,140.32c0,87.75-365.12,32.49-815.51,32.49S101.06,230.15,101.06,142.4,463.5,15.35,913.89,15.35s815.51,37.22,815.51,124.97Z"/><path class="cls-46" d="M1726.43,140.02c0,86.44-363.79,32.64-812.54,32.64S103.98,228.5,103.98,142.06,465.14,16.75,913.89,16.75s812.54,36.84,812.54,123.27Z"/><path class="cls-40" d="M1723.46,139.72c0,85.13-362.46,32.8-809.57,32.8S106.89,226.84,106.89,141.72,466.78,18.14,913.89,18.14s809.57,36.45,809.57,121.58Z"/><path class="cls-55" d="M1720.49,139.42c0,83.82-361.13,32.95-806.6,32.95S109.81,225.19,109.81,141.38,468.42,19.54,913.89,19.54s806.6,36.07,806.6,119.88Z"/><path class="cls-41" d="M1717.52,139.12c0,82.5-359.8,33.1-803.63,33.1S112.72,223.54,112.72,141.04,470.06,20.93,913.89,20.93s803.63,35.68,803.63,118.19Z"/><path class="cls-10" d="M1714.55,138.82c0,81.19-358.47,33.26-800.66,33.26S115.64,221.89,115.64,140.7,471.7,22.33,913.89,22.33s800.66,35.3,800.66,116.49Z"/><path class="cls-53" d="M1711.58,138.52c0,79.88-357.14,33.41-797.69,33.41S118.56,220.24,118.56,140.35,473.34,23.73,913.89,23.73s797.69,34.91,797.69,114.8Z"/><path class="cls-4" d="M1708.61,138.22c0,78.57-355.81,33.57-794.72,33.57S121.47,218.59,121.47,140.01,474.98,25.12,913.89,25.12s794.72,34.53,794.72,113.1Z"/><path class="cls-31" d="M1705.64,137.92c0,77.26-354.48,33.72-791.75,33.72S124.39,216.93,124.39,139.67,476.62,26.52,913.89,26.52s791.75,34.15,791.75,111.41Z"/><path class="cls-15" d="M1702.67,137.63c0,75.95-353.15,33.88-788.78,33.88S127.31,215.28,127.31,139.33,478.26,27.91,913.89,27.91s788.78,33.76,788.78,109.71Z"/><path class="cls-35" d="M1699.7,137.33c0,74.64-351.82,34.03-785.81,34.03s-783.67,42.27-783.67-32.37S479.9,29.31,913.89,29.31s785.81,33.38,785.81,108.02Z"/><path class="cls-39" d="M1696.73,137.03c0,73.33-350.49,34.19-782.84,34.19s-780.75,40.76-780.75-32.56S481.54,30.7,913.89,30.7s782.84,32.99,782.84,106.32Z"/><path class="cls-25" d="M1693.76,136.73c0,72.02-349.16,34.34-779.87,34.34s-777.84,39.26-777.84-32.76S483.18,32.1,913.89,32.1s779.87,32.61,779.87,104.63Z"/><path class="cls-62" d="M1690.79,136.43c0,70.71-347.83,34.5-776.9,34.5s-774.92,37.75-774.92-32.96S484.82,33.5,913.89,33.5s776.9,32.22,776.9,102.93Z"/><path class="cls-26" d="M1687.82,136.13c0,69.4-346.5,34.65-773.93,34.65s-772,36.24-772-33.15S486.46,34.89,913.89,34.89s773.93,31.84,773.93,101.24Z"/><path class="cls-54" d="M1684.85,135.83c0,68.09-345.17,34.81-770.96,34.81s-769.09,34.74-769.09-33.35S488.1,36.29,913.89,36.29s770.96,31.46,770.96,99.54Z"/><path class="cls-52" d="M1681.88,135.53c0,66.78-343.84,34.96-767.99,34.96s-766.17,33.23-766.17-33.55S489.74,37.68,913.89,37.68s767.99,31.07,767.99,97.85Z"/><path class="cls-51" d="M1678.91,135.23c0,65.46-342.51,35.11-765.02,35.11s-763.25,31.72-763.25-33.74S491.38,39.08,913.89,39.08s765.02,30.69,765.02,96.15Z"/><path class="cls-37" d="M1675.94,134.93c0,64.15-341.18,35.27-762.05,35.27s-760.34,30.22-760.34-33.94S493.02,40.47,913.89,40.47s762.05,30.3,762.05,94.46Z"/><path class="cls-47" d="M1672.97,134.63c0,62.84-339.85,35.42-759.08,35.42s-757.42,28.71-757.42-34.13S494.66,41.87,913.89,41.87s759.08,29.92,759.08,92.76Z"/><path class="cls-28" d="M1670,134.33c0,61.53-338.52,35.58-756.11,35.58s-754.5,27.2-754.5-34.33S496.3,43.26,913.89,43.26s756.11,29.53,756.11,91.07Z"/><path class="cls-42" d="M1667.03,134.03c0,60.22-337.19,35.73-753.14,35.73s-751.59,25.7-751.59-34.53S497.94,44.66,913.89,44.66s753.14,29.15,753.14,89.37Z"/><path class="cls-43" d="M1664.06,133.73c0,58.91-335.86,35.89-750.17,35.89s-748.67,24.19-748.67-34.72S499.58,46.06,913.89,46.06s750.17,28.77,750.17,87.68Z"/><path class="cls-7" d="M1661.09,133.43c0,57.6-334.53,36.04-747.2,36.04s-745.75,22.68-745.75-34.92S501.22,47.45,913.89,47.45s747.2,28.38,747.2,85.98Z"/><path class="cls-20" d="M1658.12,133.13c0,56.29-333.2,36.2-744.23,36.2s-742.84,21.18-742.84-35.11S502.86,48.85,913.89,48.85s744.23,28,744.23,84.29Z"/><path class="cls-33" d="M1655.15,132.83c0,54.98-331.87,36.35-741.26,36.35s-739.92,19.67-739.92-35.31S504.5,50.24,913.89,50.24s741.26,27.61,741.26,82.59Z"/><path class="cls-16" d="M1652.18,132.54c0,53.67-330.54,36.51-738.29,36.51s-737.01,18.16-737.01-35.51S506.14,51.64,913.89,51.64s738.29,27.23,738.29,80.9Z"/><path class="cls-30" d="M1649.21,132.24c0,52.36-329.21,36.66-735.32,36.66s-734.09,16.65-734.09-35.7S507.79,53.03,913.89,53.03s735.32,26.84,735.32,79.2Z"/><path class="cls-49" d="M1646.24,131.94c0,51.05-327.88,36.81-732.35,36.81s-731.17,15.15-731.17-35.9S509.43,54.43,913.89,54.43s732.35,26.46,732.35,77.51Z"/><path class="cls-9" d="M1643.27,131.64c0,49.74-326.55,36.97-729.38,36.97s-728.26,13.64-728.26-36.1S511.07,55.83,913.89,55.83s729.38,26.08,729.38,75.81Z"/><path class="cls-50" d="M1640.3,131.34c0,48.43-325.22,37.12-726.41,37.12s-725.34,12.13-725.34-36.29S512.71,57.22,913.89,57.22s726.41,25.69,726.41,74.12Z"/><path class="cls-8" d="M1637.33,131.04c0,47.11-323.9,37.28-723.44,37.28s-722.42,10.63-722.42-36.49S514.35,58.62,913.89,58.62s723.44,25.31,723.44,72.42Z"/><path class="cls-6" d="M1634.36,130.74c0,45.8-322.57,37.43-720.47,37.43s-719.51,9.12-719.51-36.68S515.99,60.01,913.89,60.01s720.47,24.92,720.47,70.73Z"/><path class="cls-45" d="M1631.39,130.44c0,44.49-321.24,37.59-717.5,37.59s-716.59,7.61-716.59-36.88S517.63,61.41,913.89,61.41s717.5,24.54,717.5,69.03Z"/><path class="cls-14" d="M1628.42,130.14c0,43.18-319.91,37.74-714.53,37.74s-713.67,6.11-713.67-37.08S519.27,62.8,913.89,62.8s714.53,24.15,714.53,67.34Z"/><path class="cls-21" d="M1625.45,129.84c0,41.87-318.58,37.9-711.56,37.9s-710.76,4.6-710.76-37.27,317.77-66.27,710.76-66.27,711.56,23.77,711.56,65.64Z"/><path class="cls-57" d="M1622.48,129.54c0,40.56-317.25,38.05-708.59,38.05s-707.84,3.09-707.84-37.47,316.5-64.53,707.84-64.53,708.59,23.38,708.59,63.95Z"/><path class="cls-32" d="M1619.51,129.24c0,39.25-315.92,38.21-705.62,38.21s-704.92,1.59-704.92-37.66,315.22-62.79,704.92-62.79,705.62,23,705.62,62.25Z"/><path class="cls-48" d="M1616.54,128.94c0,37.94-314.59,38.36-702.65,38.36s-702.01.08-702.01-37.86,313.94-61.06,702.01-61.06,702.65,22.62,702.65,60.56Z"/><path class="cls-34" d="M1613.57,128.64c0,36.63-313.26,38.51-699.68,38.51s-699.09-1.43-699.09-38.06,312.67-59.32,699.09-59.32,699.68,22.23,699.68,58.86Z"/><path class="cls-5" d="M1610.6,128.34c0,35.32-311.93,38.67-696.71,38.67s-696.17-2.94-696.17-38.25,311.39-57.58,696.17-57.58,696.71,21.85,696.71,57.17Z"/><path class="cls-23" d="M1607.63,128.04c0,34.01-310.6,38.82-693.74,38.82s-693.26-4.44-693.26-38.45,310.12-55.85,693.26-55.85,693.74,21.46,693.74,55.47Z"/><path class="cls-2" d="M1604.66,127.74c0,32.7-309.27,38.98-690.77,38.98s-690.34-5.95-690.34-38.65,308.84-54.11,690.34-54.11,690.77,21.08,690.77,53.78Z"/><path class="cls-59" d="M1601.69,127.45c0,31.39-307.94,39.13-687.8,39.13s-687.43-7.46-687.43-38.84,307.56-52.37,687.43-52.37,687.8,20.69,687.8,52.08Z"/><path class="cls-58" d="M1598.72,127.15c0,30.08-306.61,39.29-684.83,39.29s-684.51-8.96-684.51-39.04,306.29-50.64,684.51-50.64,684.83,20.31,684.83,50.39Z"/><path class="cls-22" d="M1595.75,126.85c0,28.76-305.28,39.44-681.86,39.44s-681.59-10.47-681.59-39.23,305.01-48.9,681.59-48.9,681.86,19.93,681.86,48.69Z"/><path class="cls-17" d="M1592.78,126.55c0,27.45-303.95,39.6-678.89,39.6s-678.68-11.98-678.68-39.43,303.74-47.16,678.68-47.16,678.89,19.54,678.89,47Z"/><path class="cls-27" d="M1589.81,126.25c0,26.14-302.62,39.75-675.92,39.75s-675.76-13.48-675.76-39.63,302.46-45.43,675.76-45.43,675.92,19.16,675.92,45.3Z"/><path class="cls-44" d="M1586.84,125.95c0,24.83-301.29,39.91-672.95,39.91s-672.84-14.99-672.84-39.82,301.18-43.69,672.84-43.69,672.95,18.77,672.95,43.61Z"/><path class="cls-64" d="M1583.87,125.65c0,23.52-299.96,40.06-669.98,40.06s-669.93-16.5-669.93-40.02,299.91-41.95,669.93-41.95,669.98,18.39,669.98,41.91Z"/><ellipse class="cls-11" cx="913.89" cy="125.35" rx="667.01" ry="40.22"/></g></svg>